<mxfile host="app.diagrams.net" modified="2024-05-08T23:57:24.238Z" agent="Mozilla/5.0 (Windows NT 10.0; Win64; x64) AppleWebKit/537.36 (KHTML, like Gecko) Chrome/124.0.0.0 Safari/537.36 Edg/124.0.0.0" etag="1v_9ePS92my-t49PvbxO" version="24.3.1" type="device">
  <diagram name="Página-1" id="npXyj5vNSmLx0HhbBBAS">
    <mxGraphModel dx="1386" dy="751" grid="1" gridSize="10" guides="1" tooltips="1" connect="1" arrows="1" fold="1" page="1" pageScale="1" pageWidth="827" pageHeight="1169" math="0" shadow="0">
      <root>
        <mxCell id="0" />
        <mxCell id="1" parent="0" />
        <mxCell id="oM9pCJ27zHncfO1NnHGR-1" value="Requisitos organizacionais" style="rounded=0;whiteSpace=wrap;html=1;" vertex="1" parent="1">
          <mxGeometry x="320" y="80" width="120" height="80" as="geometry" />
        </mxCell>
        <mxCell id="oM9pCJ27zHncfO1NnHGR-2" value="Requisitos de de entrega" style="rounded=0;whiteSpace=wrap;html=1;" vertex="1" parent="1">
          <mxGeometry x="160" y="260" width="120" height="80" as="geometry" />
        </mxCell>
        <mxCell id="oM9pCJ27zHncfO1NnHGR-3" value="Requisitos de padrões" style="rounded=0;whiteSpace=wrap;html=1;" vertex="1" parent="1">
          <mxGeometry x="480" y="260" width="120" height="80" as="geometry" />
        </mxCell>
        <mxCell id="oM9pCJ27zHncfO1NnHGR-4" value="Requisitos de implementação" style="rounded=0;whiteSpace=wrap;html=1;" vertex="1" parent="1">
          <mxGeometry x="320" y="260" width="120" height="80" as="geometry" />
        </mxCell>
        <mxCell id="oM9pCJ27zHncfO1NnHGR-5" style="rounded=0;orthogonalLoop=1;jettySize=auto;html=1;endArrow=none;endFill=0;strokeWidth=3;exitX=0.5;exitY=1;exitDx=0;exitDy=0;entryX=0.5;entryY=0;entryDx=0;entryDy=0;edgeStyle=orthogonalEdgeStyle;" edge="1" parent="1" source="oM9pCJ27zHncfO1NnHGR-1" target="oM9pCJ27zHncfO1NnHGR-2">
          <mxGeometry relative="1" as="geometry">
            <mxPoint x="390" y="10" as="sourcePoint" />
            <mxPoint x="597" y="92" as="targetPoint" />
          </mxGeometry>
        </mxCell>
        <mxCell id="oM9pCJ27zHncfO1NnHGR-6" style="rounded=0;orthogonalLoop=1;jettySize=auto;html=1;endArrow=none;endFill=0;strokeWidth=3;exitX=0.5;exitY=1;exitDx=0;exitDy=0;edgeStyle=orthogonalEdgeStyle;" edge="1" parent="1" source="oM9pCJ27zHncfO1NnHGR-1" target="oM9pCJ27zHncfO1NnHGR-4">
          <mxGeometry relative="1" as="geometry">
            <mxPoint x="400" y="20" as="sourcePoint" />
            <mxPoint x="607" y="102" as="targetPoint" />
          </mxGeometry>
        </mxCell>
        <mxCell id="oM9pCJ27zHncfO1NnHGR-7" style="rounded=0;orthogonalLoop=1;jettySize=auto;html=1;endArrow=none;endFill=0;strokeWidth=3;exitX=0.5;exitY=0;exitDx=0;exitDy=0;entryX=0.5;entryY=1;entryDx=0;entryDy=0;edgeStyle=orthogonalEdgeStyle;" edge="1" parent="1" source="oM9pCJ27zHncfO1NnHGR-3" target="oM9pCJ27zHncfO1NnHGR-1">
          <mxGeometry relative="1" as="geometry">
            <mxPoint x="410" y="30" as="sourcePoint" />
            <mxPoint x="617" y="112" as="targetPoint" />
          </mxGeometry>
        </mxCell>
      </root>
    </mxGraphModel>
  </diagram>
</mxfile>
